# xmcd
#
# Track frame offsets: 
#        183
#        15618
#        33000
#        51235
#        65613
#        81265
#        95738
#        113543
#        127865
#        144420
#
# Disc length: 2102 seconds
#
# Revision: 6
# Processed by: cddbd v1.5.2PL0 Copyright (c) Steve Scherf et al.
# Submitted via: ExactAudioCopy v0.95b4
#
DISCID=7b08340a
DTITLE=Tanya Tucker - Fire To Fire
DYEAR=1995
DGENRE=Country
TTITLE0=Come In Out Of The World
TTITLE1=I'll Take The Memories
TTITLE2=I Bet She Knows
TTITLE3=Find Out What's Happenin'
TTITLE4=Fire To Fire (Duet With Willie Nelson)
TTITLE5=Between The Two Of Them
TTITLE6=Nobody Dies From A Broken Heart
TTITLE7=I'll Take Today
TTITLE8=The Love You Gave To Me
TTITLE9=Love Will
EXTD=
EXTT0=
EXTT1=
EXTT2=
EXTT3=
EXTT4=
EXTT5=
EXTT6=
EXTT7=
EXTT8=
EXTT9=
PLAYORDER=
